M48
; DRILL file {KiCad (5.1.10)-1} date 02/26/23 17:14:26
; FORMAT={-:-/ absolute / inch / decimal}
; #@! TF.CreationDate,2023-02-26T17:14:26+05:00
; #@! TF.GenerationSoftware,Kicad,Pcbnew,(5.1.10)-1
; #@! TF.FileFunction,Plated,1,2,PTH
FMAT,2
INCH
T1C0.0295
T2C0.0315
%
G90
G05
T1
X4.4Y-1.95
X4.4Y-2.0
X4.4Y-2.05
X4.575Y-1.95
X4.575Y-2.0
X4.575Y-2.05
T2
X4.175Y-1.45
X4.175Y-1.5287
X4.175Y-1.725
X4.175Y-1.8037
X4.175Y-2.0
X4.175Y-2.0787
X4.3443Y-1.462
X4.3443Y-1.562
X4.3443Y-1.662
X4.3443Y-1.762
X4.6443Y-1.462
X4.6443Y-1.562
X4.6443Y-1.662
X4.6443Y-1.762
X4.8Y-1.45
X4.8Y-1.65
X4.8Y-1.85
X4.8Y-2.05
X5.1Y-1.45
X5.1Y-1.65
X5.1Y-1.85
X5.1Y-2.05
X5.3Y-1.575
X5.3Y-1.925
X5.3984Y-1.575
X5.3984Y-1.925
T0
M30
