%TF.GenerationSoftware,KiCad,Pcbnew,(5.1.10)-1*%
%TF.CreationDate,2023-02-26T17:14:06+05:00*%
%TF.ProjectId,Open_Loop_DC_Motor_Speed_Control_Project,4f70656e-5f4c-46f6-9f70-5f44435f4d6f,rev?*%
%TF.SameCoordinates,Original*%
%TF.FileFunction,Other,User*%
%FSLAX46Y46*%
G04 Gerber Fmt 4.6, Leading zero omitted, Abs format (unit mm)*
G04 Created by KiCad (PCBNEW (5.1.10)-1) date 2023-02-26 17:14:06*
%MOMM*%
%LPD*%
G01*
G04 APERTURE LIST*
%ADD10C,0.050000*%
G04 APERTURE END LIST*
D10*
%TO.C,BT1*%
X104545000Y-49300000D02*
X107545000Y-49300000D01*
X107545000Y-49300000D02*
X107545000Y-54300000D01*
X107545000Y-54300000D02*
X104545000Y-54300000D01*
X104545000Y-54300000D02*
X104545000Y-49300000D01*
%TO.C,C1*%
X140120000Y-40005000D02*
G75*
G03*
X140120000Y-40005000I-4250000J0D01*
G01*
%TO.C,C2*%
X140120000Y-48895000D02*
G75*
G03*
X140120000Y-48895000I-4250000J0D01*
G01*
%TO.C,J1*%
X104545000Y-35330000D02*
X104545000Y-40330000D01*
X104545000Y-40330000D02*
X107545000Y-40330000D01*
X107545000Y-40330000D02*
X107545000Y-35330000D01*
X107545000Y-35330000D02*
X104545000Y-35330000D01*
%TO.C,J2*%
X104545000Y-47315000D02*
X104545000Y-42315000D01*
X107545000Y-47315000D02*
X104545000Y-47315000D01*
X107545000Y-42315000D02*
X107545000Y-47315000D01*
X104545000Y-42315000D02*
X107545000Y-42315000D01*
%TO.C,Q1*%
X109030000Y-53530000D02*
X109030000Y-48070000D01*
X109030000Y-53530000D02*
X113770000Y-53530000D01*
X113770000Y-48070000D02*
X109030000Y-48070000D01*
X113770000Y-48070000D02*
X113770000Y-53530000D01*
%TO.C,Q2*%
X114195000Y-53530000D02*
X114195000Y-48070000D01*
X114195000Y-53530000D02*
X118935000Y-53530000D01*
X118935000Y-48070000D02*
X114195000Y-48070000D01*
X118935000Y-48070000D02*
X118935000Y-53530000D01*
%TO.C,R1*%
X130590000Y-38330000D02*
X130590000Y-35330000D01*
X130590000Y-35330000D02*
X120870000Y-35330000D01*
X120870000Y-35330000D02*
X120870000Y-38330000D01*
X120870000Y-38330000D02*
X130590000Y-38330000D01*
%TO.C,R2*%
X120870000Y-43410000D02*
X130590000Y-43410000D01*
X120870000Y-40410000D02*
X120870000Y-43410000D01*
X130590000Y-40410000D02*
X120870000Y-40410000D01*
X130590000Y-43410000D02*
X130590000Y-40410000D01*
%TO.C,R3*%
X130590000Y-48490000D02*
X130590000Y-45490000D01*
X130590000Y-45490000D02*
X120870000Y-45490000D01*
X120870000Y-45490000D02*
X120870000Y-48490000D01*
X120870000Y-48490000D02*
X130590000Y-48490000D01*
%TO.C,R4*%
X130590000Y-50570000D02*
X120870000Y-50570000D01*
X130590000Y-53570000D02*
X130590000Y-50570000D01*
X120870000Y-53570000D02*
X130590000Y-53570000D01*
X120870000Y-50570000D02*
X120870000Y-53570000D01*
%TO.C,U1*%
X109245001Y-35585001D02*
X109245001Y-46285001D01*
X109245001Y-46285001D02*
X119045001Y-46285001D01*
X119045001Y-46285001D02*
X119045001Y-35585001D01*
X119045001Y-35585001D02*
X109245001Y-35585001D01*
%TD*%
M02*
